<svg width="100" height="27" viewBox="0 0 100 27" fill="none" xmlns="http://www.w3.org/2000/svg">
<g clip-path="url(#clip0_644_9667)">
<path d="M7.02818 9.06586C4.6573 9.06586 3.48956 11.1585 3.48956 13.9604V20.9831H0.127869V6.19295H3.41879V10.0235H3.48956C4.19728 7.64714 5.57734 5.76733 7.7359 5.76733C9.25751 5.76733 9.89446 6.29935 9.89446 6.29935L8.37286 9.3496C8.37286 9.3496 7.91283 9.06586 7.02818 9.06586ZM47.4746 11.123V21.0186H44.2191V12.3289C44.2191 9.84615 43.4406 8.53384 41.459 8.53384C39.4066 8.53384 38.4157 10.2008 38.4157 13.393V21.0186H35.1602V12.3289C35.1602 9.95256 34.3817 8.53384 32.4355 8.53384C30.1708 8.53384 29.3215 10.52 29.3215 13.393V21.0186H26.0306V6.19295H29.3215V9.56241H29.3569C29.8523 7.25699 31.2677 5.8028 33.6386 5.8028C35.9741 5.8028 37.4957 7.07965 38.0973 9.31413C38.6634 7.15059 40.1143 5.8028 42.379 5.8028C45.4576 5.8028 47.4746 7.75354 47.4746 11.123ZM16.4763 5.76733C13.4331 5.76733 11.4868 7.18605 10.5668 9.77522L13.3623 10.8038C13.8577 9.2432 14.9193 8.3565 16.5471 8.3565C18.3518 8.3565 19.4487 9.17226 19.4487 10.3782C19.4487 11.6196 18.5995 11.9033 16.6886 12.2225C14.5654 12.5772 9.46983 12.6836 9.46983 16.9752C9.46983 19.4934 11.5576 21.3732 14.707 21.3732C17.0779 21.3732 18.7056 20.4156 19.4487 18.6067H19.4841V21.0186H22.7397V11.9033C22.7043 7.89541 20.7226 5.76733 16.4763 5.76733ZM19.5195 14.0314C19.5195 17.1526 17.9979 19.1388 15.5209 19.1388C13.7869 19.1388 12.7607 18.1811 12.7607 16.7624C12.7607 15.4501 13.8223 14.5279 15.8747 14.1378C17.9625 13.7476 19.0241 13.2865 19.5195 12.1161V14.0314ZM59.0813 5.8028C56.6043 5.8028 54.9411 7.18605 54.2334 9.2432V6.19295H50.7655V26.6934H54.198V17.9683H54.2334C55.0119 20.2028 56.6043 21.4442 59.0813 21.4442C63.0445 21.4442 65.8754 18.1811 65.8754 13.5703C65.8754 8.95945 63.0445 5.8028 59.0813 5.8028ZM58.232 18.6777C55.5073 18.6777 53.9857 16.6915 53.9857 13.6058C53.9857 10.52 55.6842 8.53384 58.232 8.53384C60.7798 8.53384 62.4784 10.6264 62.4784 13.6058C62.4784 16.5851 60.7798 18.6777 58.232 18.6777Z" fill="#818898"/>
<path d="M99.8815 20.9121V21.0185H86.4702V20.9121C88.4164 19.8126 89.7257 18.7131 90.9288 17.5427H96.4491L99.8815 20.9121ZM96.5552 3.4264L93.1582 0.0924072H93.052C93.052 0.0924072 93.1228 6.2993 87.3902 11.9742C81.7992 17.5072 75.2527 17.5427 75.2527 17.5427V17.6491L78.7206 21.054C78.7206 21.054 85.1963 21.1249 90.8934 15.4855C96.5906 9.88157 96.5552 3.4264 96.5552 3.4264Z" fill="#818898"/>
</g>
<defs>
<clipPath id="clip0_644_9667">
<rect width="99.7537" height="26.601" fill="white" transform="translate(0.12793 0.0924072)"/>
</clipPath>
</defs>
</svg>
