<svg width="109" height="28" viewBox="0 0 109 28" fill="none" xmlns="http://www.w3.org/2000/svg">
<g clip-path="url(#clip0_644_9677)">
<mask id="mask0_644_9677" style="mask-type:luminance" maskUnits="userSpaceOnUse" x="0" y="0" width="109" height="28">
<path d="M108.031 0.785645H0V27.9731H108.031V0.785645Z" fill="white"/>
</mask>
<g mask="url(#mask0_644_9677)">
<path d="M3.76283 18.576C3.89139 18.874 4.03093 19.1657 4.18302 19.448C4.29433 19.448 4.40409 19.4386 4.5154 19.4386C5.28834 19.4367 6.05398 19.5881 6.76798 19.8843C7.48198 20.1804 8.13016 20.6152 8.67496 21.1637L8.71731 21.2091C8.83017 20.9049 8.95716 20.6069 9.09512 20.3152C7.84594 19.1681 6.21119 18.5327 4.5154 18.5352C4.264 18.5354 4.01277 18.5489 3.76283 18.576ZM3.12627 16.5373C3.18742 16.8352 3.26268 17.1285 3.34891 17.4171C3.73515 17.3604 4.12503 17.3321 4.5154 17.3324C6.41243 17.3263 8.24859 18.0019 9.68939 19.2363C9.84617 18.9775 10.0202 18.7266 10.2021 18.4835C8.60725 17.1555 6.59675 16.43 4.52168 16.4337C4.05754 16.4347 3.59417 16.4713 3.13568 16.5435L3.12627 16.5373ZM4.85093 20.5207C5.11942 20.9014 5.41217 21.2644 5.72737 21.6075C6.66217 21.918 7.44584 22.5691 7.9224 23.4314C7.98978 23.4737 8.05723 23.516 8.12618 23.5568C8.18232 23.1768 8.25819 22.7999 8.35355 22.4277C7.9409 21.8795 7.41558 21.4262 6.81301 21.0984C6.21043 20.7705 5.54458 20.5757 4.86033 20.527L4.85093 20.5207ZM4.51227 14.4044C3.97489 14.4043 3.43824 14.4442 2.90677 14.5236C2.90677 14.8279 2.92558 15.1321 2.95537 15.4301C3.47042 15.3495 3.99096 15.3091 4.51227 15.3093C6.85131 15.3028 9.11767 16.1219 10.9123 17.6225C11.1161 17.4014 11.3294 17.1865 11.552 16.9827C9.58789 15.3175 7.09632 14.4043 4.52168 14.406L4.51227 14.4044Z" fill="#818898"/>
<path d="M14.9433 24.9715C15.2568 24.9323 15.5547 24.8821 15.8542 24.8146C15.8873 24.2735 16.0615 23.7504 16.3594 23.2975C16.6574 22.8446 17.0687 22.4776 17.5525 22.233C18.0362 21.9885 18.5756 21.8749 19.1169 21.9036C19.6582 21.9322 20.1825 22.1021 20.6378 22.3964C20.8677 22.1926 21.0899 21.9792 21.3041 21.7566C20.7082 21.3247 20.005 21.0653 19.2714 21.0067C18.5379 20.9481 17.8024 21.0925 17.1455 21.4243C16.4886 21.7559 15.9356 22.262 15.5472 22.8872C15.1587 23.5123 14.9498 24.2323 14.9433 24.9684V24.9715ZM12.4801 25.0029C12.778 25.0327 13.0807 25.0484 13.3848 25.0546C13.3848 25.0405 13.3848 25.0248 13.3848 25.0107C13.3846 23.9757 13.6728 22.9611 14.217 22.0807C14.7611 21.2003 15.5397 20.489 16.4654 20.0264C17.3911 19.564 18.4274 19.3686 19.4579 19.4623C20.4885 19.556 21.4725 19.935 22.2997 20.5568C22.4753 20.3111 22.6399 20.0571 22.7936 19.7946C21.8298 19.0844 20.688 18.6554 19.4951 18.5554C18.3022 18.4553 17.1049 18.6879 16.0363 19.2276C14.9676 19.7673 14.0695 20.5927 13.4418 21.6123C12.814 22.6318 12.4811 23.8054 12.4801 25.0029ZM18.9539 14.0956C16.31 14.095 13.7558 15.0546 11.7661 16.7959C9.77628 18.5373 8.48619 20.942 8.13556 23.5632C8.41312 23.72 8.69689 23.8769 8.99007 24.0211C9.15803 22.3453 9.74557 20.7388 10.6984 19.3502C11.6513 17.9616 12.9388 16.8357 14.4418 16.0765C15.9448 15.3173 17.615 14.9493 19.2978 15.0066C20.9806 15.0638 22.6218 15.5444 24.0698 16.404C24.1294 16.0904 24.178 15.7768 24.2094 15.4458C22.5998 14.5586 20.7916 14.094 18.9539 14.0956ZM10.1738 24.4963C10.4654 24.5946 10.7633 24.6814 11.0675 24.7567C11.1119 23.337 11.5381 21.9556 12.3013 20.758C13.0645 19.5602 14.1364 18.5905 15.4042 17.9509C16.672 17.3112 18.0888 17.0252 19.5053 17.1231C20.9219 17.221 22.2858 17.6991 23.4537 18.5071C23.5728 18.2217 23.6774 17.931 23.7672 17.6351C22.4757 16.7925 20.9855 16.3041 19.4459 16.2188C17.9063 16.1336 16.3713 16.4544 14.9947 17.1493C13.6181 17.8441 12.4482 18.8886 11.6021 20.178C10.756 21.4674 10.2634 22.9566 10.1738 24.4963Z" fill="#818898"/>
<path d="M13.5903 0.785645C10.9024 0.785645 8.27485 1.5829 6.03993 3.0766C3.80502 4.57031 2.06312 6.69336 1.03451 9.1773C0.00588814 11.6612 -0.263245 14.3945 0.26114 17.0314C0.785521 19.6683 2.07987 22.0905 3.98051 23.9916C5.88115 25.8928 8.30269 27.1875 10.939 27.7119C13.5752 28.2365 16.3078 27.9673 18.7911 26.9384C21.2744 25.9095 23.3969 24.1672 24.8902 21.9317C26.3835 19.6962 27.1806 17.068 27.1806 14.3794C27.1806 10.7741 25.7487 7.31649 23.2001 4.76716C20.6514 2.21784 17.1947 0.785645 13.5903 0.785645ZM21.9596 22.7508C19.9762 24.7422 17.3453 25.9573 14.5436 26.1759L13.5903 27.8273L12.637 26.1759C9.835 25.9559 7.2035 24.7427 5.2162 22.7546C3.22891 20.7664 2.01635 18.1341 1.79678 15.3313L0.156793 14.3794L1.80463 13.4274C2.02368 10.6256 3.23524 7.9938 5.22132 6.00581C7.20735 4.01779 9.83754 2.80402 12.6386 2.58288L13.5903 0.942471L14.542 2.59072C17.3432 2.80983 19.9742 4.0217 21.9618 6.00828C23.9493 7.99484 25.1627 10.6257 25.3838 13.4274L27.0316 14.3794L25.3838 15.3313C25.1656 18.1343 23.9508 20.7665 21.9596 22.7508Z" fill="#818898"/>
<path d="M37.2024 6.68066H39.3864L45.5011 20.8704H42.6115L41.2898 17.624H35.139L33.8565 20.8704H31.0344L37.2024 6.68066ZM40.4087 15.4629L38.2246 9.68703L35.9998 15.4598L40.4087 15.4629Z" fill="#818898"/>
<path d="M59.6825 19.8292C57.9328 20.7639 55.9761 21.2312 53.8124 21.2312C52.7839 21.2431 51.7621 21.0639 50.7989 20.7027C49.9142 20.3719 49.1084 19.8596 48.4333 19.1986C47.7583 18.5378 47.2289 17.7429 46.8792 16.8652C46.4956 15.9028 46.3048 14.8744 46.318 13.8384C46.3043 12.779 46.4948 11.7268 46.8792 10.7395C47.2283 9.84954 47.7573 9.04124 48.4331 8.36514C49.1079 7.70166 49.9137 7.18623 50.7989 6.85177C51.7621 6.48853 52.7847 6.30823 53.8139 6.32013C54.8424 6.31366 55.8671 6.44553 56.8603 6.7122C57.8055 6.97156 58.677 7.44848 59.405 8.10484L57.5408 9.98829C57.0671 9.53617 56.5043 9.18789 55.8882 8.96582C55.2306 8.724 54.535 8.60179 53.8343 8.60513C53.1496 8.595 52.4704 8.72806 51.84 8.99562C51.26 9.24697 50.7384 9.61596 50.3082 10.0793C49.8761 10.5473 49.539 11.0948 49.3157 11.6914C49.0783 12.3262 48.9593 12.9992 48.9645 13.6769C48.9573 14.3931 49.0761 15.105 49.3157 15.7799C49.5333 16.3947 49.8706 16.9603 50.3082 17.4439C50.7376 17.9116 51.2591 18.2854 51.84 18.5416C52.4684 18.8166 53.1485 18.9535 53.8343 18.9431C54.4431 18.9459 55.0505 18.8854 55.6468 18.7628C56.1775 18.6562 56.688 18.4667 57.1598 18.2013V14.8594H54.2483V12.5744H59.6778L59.6825 19.8292Z" fill="#818898"/>
<path d="M62.6081 6.68066H65.1339V20.8704H62.6081V6.68066Z" fill="#818898"/>
<path d="M77.9763 10.0087C77.4535 9.44727 76.9496 9.07292 76.4634 8.88581C75.9941 8.70243 75.4948 8.60727 74.9909 8.60511C74.3067 8.59518 73.627 8.72817 72.997 8.99561C72.4166 9.24696 71.8951 9.61595 71.4651 10.0792C71.0331 10.5473 70.6958 11.0948 70.4723 11.6914C70.2357 12.3263 70.1168 12.9992 70.1227 13.6769C70.1148 14.393 70.2338 15.1049 70.4723 15.7799C70.69 16.3947 71.0272 16.9603 71.4651 17.4439C71.8944 17.9116 72.416 18.2854 72.997 18.5416C73.625 18.8164 74.3054 18.9534 74.9909 18.9431C75.5745 18.9428 76.1497 18.8036 76.6686 18.5369C77.264 18.2164 77.7803 17.7682 78.1815 17.2243L80.2657 18.7063C79.671 19.5497 78.858 20.215 77.9136 20.6305C76.9842 21.0332 75.9804 21.2378 74.9674 21.2312C73.9394 21.2429 72.9185 21.0637 71.9559 20.7027C71.071 20.3723 70.2645 19.8602 69.5894 19.1992C68.9143 18.5382 68.3856 17.7431 68.0359 16.8651C67.6516 15.903 67.4608 14.8744 67.4745 13.8384C67.4634 12.7783 67.6569 11.7259 68.0457 10.7395C68.3934 9.84933 68.9221 9.0409 69.5979 8.36513C70.2723 7.70217 71.0775 7.18679 71.9617 6.85176C72.9251 6.48866 73.9479 6.30836 74.9772 6.32012C75.8935 6.31162 76.8032 6.4854 77.6515 6.83138C78.541 7.22333 79.3272 7.8172 79.9474 8.5659L77.9763 10.0087Z" fill="#818898"/>
<path d="M87.7553 6.68066H89.9394L96.054 20.8704H93.1692L91.8471 17.624H85.6901L84.4078 20.8704H81.5858L87.7553 6.68066ZM90.9596 15.4629L88.7761 9.68703L86.5462 15.4598L90.9596 15.4629Z" fill="#818898"/>
<path d="M98.0323 6.68069H102.802C103.465 6.67916 104.127 6.74644 104.776 6.88143C105.37 6.99987 105.938 7.22745 106.449 7.55264C106.932 7.87072 107.328 8.30474 107.601 8.8151C107.905 9.42754 108.051 10.1062 108.026 10.7895C108.026 11.6855 107.873 12.407 107.567 12.9537C107.276 13.4837 106.846 13.9241 106.323 14.2272C105.762 14.542 105.148 14.7494 104.511 14.8388C103.798 14.9463 103.078 14.9987 102.357 14.9957H100.554V20.8673H98.0323V6.68069ZM102.081 12.8346C102.441 12.8346 102.814 12.8205 103.203 12.7938C103.571 12.7695 103.932 12.6864 104.274 12.5476C104.59 12.4226 104.867 12.2152 105.076 11.947C105.302 11.6179 105.412 11.2228 105.389 10.824C105.408 10.4526 105.31 10.0844 105.108 9.77176C104.923 9.51328 104.675 9.3065 104.387 9.17108C104.077 9.02619 103.745 8.9345 103.404 8.8998C103.059 8.86039 102.711 8.84046 102.363 8.84019H100.56V12.8346H102.081Z" fill="#818898"/>
</g>
</g>
<defs>
<clipPath id="clip0_644_9677">
<rect width="108.031" height="27.1875" fill="white" transform="translate(0 0.785645)"/>
</clipPath>
</defs>
</svg>
