<svg width="128" height="19" viewBox="0 0 128 19" fill="none" xmlns="http://www.w3.org/2000/svg">
<path d="M11.6692 18.2025H16.6242V0.379395H11.6692V7.07885H5.627V0.379395H0.671997V18.2025H5.627V11.0479H11.6692V18.2025ZM33.971 4.01993H28.9906V11.6295C28.9906 13.2727 28.0805 14.2335 26.6395 14.2335C25.2238 14.2335 24.2885 13.2727 24.2885 11.6295V4.01993H19.3587V12.2616C19.3587 16.0031 21.4064 18.329 24.6928 18.329C26.6902 18.329 28.1817 17.3934 28.9906 16.18V18.2025H33.971V4.01993ZM56.1055 18.2025H61.0607V9.9357C61.0607 6.21934 58.9117 3.89348 55.3218 3.89348C53.2237 3.89348 51.5551 5.05651 50.5943 6.49744C49.6586 4.85423 47.9906 3.89348 45.867 3.89348C43.9455 3.89348 42.5552 4.753 41.7461 5.89062V4.01993H36.7909V18.2025H41.7461V10.5929C41.7461 9.05078 42.6562 8.19126 44.1226 8.19126C45.5383 8.19126 46.4484 9.05078 46.4484 10.5929V18.2025H51.4034V10.5929C51.4034 9.05078 52.3135 8.19126 53.7545 8.19126C55.1702 8.19126 56.1055 9.05078 56.1055 10.5929V18.2025ZM62.9662 11.0985C62.9662 15.6238 65.646 18.3794 69.0082 18.3794C71.0055 18.3794 72.4464 17.4947 73.1795 16.2306V18.2025H78.1347V4.01993H73.1795V5.99185C72.4464 4.72779 71.0307 3.84286 69.0082 3.84286C65.646 3.84286 62.9662 6.57327 62.9662 11.0985ZM73.1795 11.0985C73.1795 13.0198 71.9915 14.0564 70.601 14.0564C69.1853 14.0564 68.0222 12.9946 68.0222 11.0985C68.0222 9.17722 69.1853 8.16605 70.601 8.16605C71.9915 8.16605 73.1795 9.20243 73.1795 11.0985ZM80.1492 11.0985C80.1492 15.6238 82.829 18.3794 86.1912 18.3794C88.1886 18.3794 89.6295 17.4947 90.3625 16.2306V18.2025H95.3176V4.01993H90.3625V5.99185C89.6295 4.72779 88.2138 3.84286 86.1912 3.84286C82.829 3.84286 80.1492 6.57327 80.1492 11.0985ZM90.3625 11.0985C90.3625 13.0198 89.1743 14.0564 87.784 14.0564C86.3683 14.0564 85.2053 12.9946 85.2053 11.0985C85.2053 9.17722 86.3683 8.16605 87.784 8.16605C89.1743 8.16605 90.3625 9.20243 90.3625 11.0985ZM107.798 18.2025H112.753V9.9357C112.753 6.21934 110.706 3.89348 107.419 3.89348C105.422 3.89348 103.93 4.82883 103.096 6.04247V4.01993H98.1412V18.2025H103.096V10.5929C103.096 8.94974 104.006 7.98898 105.473 7.98898C106.888 7.98898 107.798 8.94974 107.798 10.5929V18.2025ZM127.405 14.0312C127.379 8.64623 119.821 10.2642 119.821 8.24188C119.821 7.71088 120.25 7.38236 121.059 7.38236C122.121 7.38236 122.753 7.91316 122.905 8.79808H127.379C127.051 5.99185 125.028 3.84286 121.16 3.84286C117.318 3.84286 115.27 5.89062 115.27 8.36832C115.27 13.576 122.804 11.8822 122.804 13.9554C122.804 14.461 122.323 14.8653 121.489 14.8653C120.453 14.8653 119.669 14.3597 119.542 13.4244H114.739C114.941 16.2558 117.571 18.3794 121.514 18.3794C125.18 18.3794 127.405 16.5087 127.405 14.0312Z" fill="#818898"/>
</svg>
