<svg width="89" height="27" viewBox="0 0 89 27" fill="none" xmlns="http://www.w3.org/2000/svg">
<g clip-path="url(#clip0_644_9649)">
<path d="M34.398 23.1566V3.58582H37.968V23.1566H34.398Z" fill="#818898"/>
<path d="M68.6788 9.85026H72.0767V11.492C72.8079 10.1959 74.4854 9.50464 75.9478 9.50464C77.7544 9.50464 79.2168 10.2823 79.862 11.708C80.8943 10.0663 82.3137 9.50464 84.0342 9.50464C86.4859 9.50464 88.8086 10.9735 88.8086 14.5594V23.1567H85.3246V15.2506C85.3246 13.8249 84.6364 12.7448 83.0019 12.7448C81.4534 12.7448 80.5502 13.9545 80.5502 15.3802V23.1567H77.0232V15.2506C77.0232 13.8249 76.292 12.7448 74.7005 12.7448C73.152 12.7448 72.2058 13.9113 72.2058 15.3802V23.1567H68.6357L68.6788 9.85026Z" fill="#818898"/>
<path d="M46.0543 23.5455C42.0112 23.5455 39.1293 20.5645 39.1293 16.5035C39.1293 12.5288 42.0542 9.46143 46.0543 9.46143C50.0975 9.46143 52.9793 12.572 52.9793 16.5035C53.0223 20.4781 50.0975 23.5455 46.0543 23.5455ZM46.0543 12.7016C43.9897 12.7016 42.2692 14.3865 42.2692 16.5035C42.2692 18.5772 43.9467 20.3053 46.0543 20.3053C48.1189 20.3053 49.8394 18.6204 49.8394 16.5035C49.8394 14.4297 48.1189 12.7016 46.0543 12.7016Z" fill="#818898"/>
<path d="M60.6354 23.5455C56.5923 23.5455 53.7104 20.5645 53.7104 16.5035C53.7104 12.5288 56.6353 9.46143 60.6354 9.46143C64.6786 9.46143 67.5604 12.572 67.5604 16.5035C67.5604 20.4781 64.6786 23.5455 60.6354 23.5455ZM60.6354 12.6584C58.5278 12.6584 56.8073 14.3865 56.8073 16.5035C56.8073 18.6204 58.5278 20.3485 60.6354 20.3485C62.7431 20.3485 64.4635 18.6204 64.4635 16.5035C64.4635 14.3865 62.7431 12.6584 60.6354 12.6584Z" fill="#818898"/>
<path d="M27.2149 11.8807H19.4296L26.1826 7.9925L24.7202 5.40034L17.9672 9.28858L21.8383 2.50576L19.2576 1.03687L15.3865 7.81969V0H12.4186V7.81969L8.5475 1.03687L5.96676 2.50576L9.83788 9.28858L3.08493 5.40034L1.62251 7.9925L8.37545 11.8807H0.59021V14.8617H8.37545L1.62251 18.75L3.08493 21.3421L9.83788 17.4539L5.96676 24.2367L8.5475 25.7056L12.4186 18.9228V26.7425H15.3865V18.9228L19.2576 25.7056L21.8383 24.2367L17.9672 17.4539L24.7202 21.3421L26.1826 18.75L19.4296 14.8617H27.2149V11.8807ZM13.881 17.4107C11.6444 17.4107 9.83788 15.5962 9.83788 13.3496C9.83788 11.1031 11.6444 9.28858 13.881 9.28858C16.1177 9.28858 17.9242 11.1031 17.9242 13.3496C17.9242 15.5962 16.1177 17.4107 13.881 17.4107Z" fill="#818898"/>
</g>
<defs>
<clipPath id="clip0_644_9649">
<rect width="88.3045" height="26.7857" fill="white" transform="translate(0.59021)"/>
</clipPath>
</defs>
</svg>
