<svg width="110" height="24" viewBox="0 0 110 24" fill="none" xmlns="http://www.w3.org/2000/svg">
<g clip-path="url(#clip0_644_9656)">
<path d="M0.978027 2.95158C0.978027 1.79887 1.91534 0.865723 3.07319 0.865723H11.3987C12.5566 0.865723 13.4939 1.79887 13.4939 2.95158V4.59831C13.4939 5.20211 12.9977 5.64123 12.4463 5.64123H2.02561C1.47425 5.69612 0.978027 5.20211 0.978027 4.59831V2.95158Z" fill="#818898"/>
<path d="M0.978027 9.59334C0.978027 9.04443 1.47425 8.55042 2.02561 8.55042H21.9848C23.1427 8.55042 24.08 9.48356 24.08 10.6363V16.1254C24.08 16.7292 23.5838 17.1683 23.0324 17.1683H3.07319C1.91534 17.2232 0.978027 16.2351 0.978027 15.0824V9.59334Z" fill="#818898"/>
<path d="M11.5641 21.1204C11.5641 20.5166 12.0604 20.0775 12.6117 20.0775H23.0324C23.6389 20.0775 24.08 20.5715 24.08 21.1204V21.7791C24.08 22.9318 23.1427 23.865 21.9848 23.865H13.7145C12.5566 23.865 11.6193 22.9318 11.6193 21.7791V21.1204H11.5641Z" fill="#818898"/>
<path d="M37.2575 15.0276H39.4629L43.5981 21.7792H48.6706L44.0944 14.5885C46.6306 13.7102 48.1193 11.7341 48.1193 8.93469C48.1193 4.98254 45.3073 2.8418 40.8413 2.8418H32.8466V21.8341H37.2575V15.0276ZM37.2575 11.4048V6.4646H40.6208C42.716 6.4646 43.7635 7.34285 43.7635 8.93469C43.7635 10.4716 42.716 11.4048 40.6208 11.4048H37.2575Z" fill="#818898"/>
<path d="M56.3346 22.0537C59.1465 22.0537 61.6827 20.6265 62.7303 17.9918L59.1465 16.8391C58.7605 18.0467 57.713 18.7054 56.3897 18.7054C54.7907 18.7054 53.6329 17.6075 53.3572 15.7412H62.8406V14.6434C62.8406 10.6913 60.5249 7.5625 56.2794 7.5625C52.2545 7.5625 49.2771 10.6913 49.2771 14.8081C49.222 19.1445 52.0891 22.0537 56.3346 22.0537ZM56.1691 10.8011C57.713 10.8011 58.54 11.844 58.5951 13.1065H53.4675C53.9086 11.5695 54.901 10.8011 56.1691 10.8011Z" fill="#818898"/>
<path d="M65.2114 18.0467C65.2114 20.901 66.7001 21.8891 69.7326 21.8891C70.725 21.8891 71.5521 21.8342 72.2688 21.7244V18.2663C71.7726 18.3212 71.5521 18.3212 71.0558 18.3212C70.0083 18.3212 69.4018 18.1016 69.4018 16.9489V11.35H72.1586V7.83699H69.4018V3.99463H65.2114V7.83699H63.4471V11.35H65.2114V18.0467Z" fill="#818898"/>
<path d="M87.4864 14.8081C87.4864 10.4717 84.6193 7.5625 80.4841 7.5625C76.3489 7.5625 73.4819 10.4717 73.4819 14.8081C73.4819 19.1445 76.3489 22.0537 80.4841 22.0537C84.6193 22.0537 87.4864 19.1445 87.4864 14.8081ZM77.7273 14.8081C77.7273 12.3929 78.8301 11.0206 80.5393 11.0206C82.2485 11.0206 83.3512 12.3929 83.3512 14.8081C83.3512 17.2233 82.2485 18.5956 80.5393 18.5956C78.7749 18.5956 77.7273 17.2233 77.7273 14.8081Z" fill="#818898"/>
<path d="M102.814 14.8081C102.814 10.4717 99.9472 7.5625 95.812 7.5625C91.6768 7.5625 88.8097 10.4717 88.8097 14.8081C88.8097 19.1445 91.6768 22.0537 95.812 22.0537C99.892 22.0537 102.814 19.1445 102.814 14.8081ZM93 14.8081C93 12.3929 94.1027 11.0206 95.812 11.0206C97.5212 11.0206 98.6239 12.3929 98.6239 14.8081C98.6239 17.2233 97.5212 18.5956 95.812 18.5956C94.1027 18.5956 93 17.2233 93 14.8081Z" fill="#818898"/>
<path d="M109.045 2.78699H104.799V21.7792H109.045V2.78699Z" fill="#818898"/>
</g>
<defs>
<clipPath id="clip0_644_9656">
<rect width="108.066" height="23.0542" fill="white" transform="translate(0.978027 0.865723)"/>
</clipPath>
</defs>
</svg>
