<svg width="98" height="18" viewBox="0 0 98 18" fill="none" xmlns="http://www.w3.org/2000/svg">
<g clip-path="url(#clip0_644_9673)">
<path d="M0.964966 17.5237V1.287H5.30652V3.46659C6.18955 1.87475 7.90655 0.895161 9.72167 0.99312C11.6104 0.944141 13.3519 1.94822 14.2349 3.58904C15.9519 1.80128 17.2519 0.99312 19.2878 0.99312C22.9426 0.99312 25.003 3.05026 25.003 6.82169V17.5237H20.3425V8.7319C20.3425 6.45434 19.852 5.42577 18.0614 5.42577C16.2463 5.42577 15.2651 6.52781 15.2651 8.7319V17.5237H10.5802V8.7319C10.5802 6.45434 10.0896 5.42577 8.29901 5.42577C6.4839 5.42577 5.50275 6.52781 5.50275 8.7319V17.5237H0.964966ZM30.5219 3.41761C33.8333 0.0380182 39.2786 -0.0354512 42.6635 3.27067C46.0485 6.57679 46.1221 12.0135 42.8107 15.3931C42.0013 16.2258 41.0201 16.887 39.9409 17.3278C38.8861 17.7686 37.7333 17.989 36.5805 17.9645C34.2502 18.038 31.9936 17.0829 30.4238 15.3686C28.8785 13.7523 28.02 11.6217 28.0445 9.36863C28.0445 7.14006 28.9275 4.98496 30.5219 3.41761ZM36.605 13.4339C38.8126 13.5319 40.7013 11.8176 40.7994 9.58904C40.8975 7.36047 39.1805 5.49924 36.9484 5.40128C34.7408 5.30332 32.8521 7.01761 32.754 9.24618C32.754 9.31965 32.754 9.36863 32.754 9.4421C32.7295 11.5972 34.4465 13.385 36.605 13.4339ZM48.2561 17.5237V1.287H52.7938L52.7448 3.46659C53.7014 1.82577 55.5165 0.870671 57.4052 0.99312C60.7656 0.99312 62.9487 3.09924 62.9487 6.82169V17.5237H58.1656V8.7319C58.1656 6.45434 57.675 5.42577 55.8354 5.42577C53.9467 5.42577 52.9655 6.52781 52.9655 8.7319V17.5237H48.2561ZM83.2583 3.39312C86.5942 0.0135283 92.015 -0.0354512 95.4 3.27067C98.7849 6.57679 98.8585 12.0135 95.5471 15.3931C94.7377 16.2258 93.7566 16.887 92.6773 17.3278C91.6226 17.7686 90.4697 17.989 89.3169 17.9645C86.9867 18.038 84.73 17.0829 83.1602 15.3686C81.6149 13.7523 80.7564 11.6217 80.7809 9.36863C80.7809 7.11557 81.664 4.98496 83.2583 3.39312ZM89.366 13.4094C91.5735 13.5074 93.4622 11.7931 93.5603 9.56455C93.6584 7.36047 91.9414 5.47475 89.7094 5.37679C87.5018 5.27883 85.6131 6.99312 85.515 9.22169C85.515 9.29516 85.515 9.34414 85.515 9.41761C85.4659 11.5972 87.2074 13.3605 89.366 13.4094ZM66.4317 17.5237V14.1441L73.128 5.47475H66.4317V1.287H78.5243V5.10741L72.6129 13.3115H78.647V17.4992H66.4317V17.5237Z" fill="#818898"/>
</g>
<defs>
<clipPath id="clip0_644_9673">
<rect width="97.035" height="17.1429" fill="white" transform="translate(0.964966 0.821411)"/>
</clipPath>
</defs>
</svg>
