<svg width="106" height="79" fill="none" xmlns="http://www.w3.org/2000/svg"><path d="M36.28 30.258a.135.135 0 0 1-.076-.023.133.133 0 0 1-.032-.183c.032-.044 3.161-4.475 6.892-7.087a.127.127 0 0 1 .144-.004.131.131 0 0 1 .005.218c-3.692 2.588-6.796 6.978-6.827 7.02a.13.13 0 0 1-.107.06Z" fill="#121A26"/><path d="M79.839 67.01h-.021l-10.684-1.757a5.247 5.247 0 0 1-4.374-4.5l-1.311-9.701a.126.126 0 0 1 .11-.146.128.128 0 0 1 .096.024.128.128 0 0 1 .052.085l1.303 9.718a4.998 4.998 0 0 0 4.169 4.277l10.62 1.744 4.73-3.53-7.817-1.519a6.084 6.084 0 0 1-4.889-5.49L70.13 34.343l-8.135 4.142a.138.138 0 0 1-.102 0 .133.133 0 0 1-.075-.065l-3.169-6.397a.132.132 0 0 1 0-.11.132.132 0 0 1 .084-.072l7.858-2.226a.128.128 0 0 1 .136.044l3.603 4.345 19.913 2.508a.132.132 0 0 1 .066.234.13.13 0 0 1-.097.026l-19.803-2.494 1.693 21.896a5.821 5.821 0 0 0 4.69 5.252l8.1 1.577a.133.133 0 0 1 .1.1.13.13 0 0 1-.049.132l-5.013 3.728a.125.125 0 0 1-.091.047ZM58.954 32.06l3.054 6.133 8.049-4.085-3.479-4.194-7.624 2.146Z" fill="#CBD5E1"/><path d="M63.576 51.15a.132.132 0 0 1-.134-.204c.02-.03.05-.05.085-.056l7.739-3.227a.126.126 0 0 1 .068 0l16.2 2.24a.133.133 0 0 1 .111.148.13.13 0 0 1-.148.11L71.34 47.925l-7.707 3.22a.108.108 0 0 1-.058.005Z" fill="#CBD5E1"/><path d="M74.213 63.472c.636 0 1.152-.61 1.152-1.363s-.516-1.363-1.152-1.363c-.636 0-1.152.61-1.152 1.363s.516 1.363 1.152 1.363Z" fill="#fff"/><path d="M74.213 63.605c-.706 0-1.282-.672-1.282-1.496s.576-1.494 1.282-1.494c.706 0 1.282.67 1.282 1.494s-.573 1.496-1.282 1.496Zm0-2.729c-.563 0-1.021.553-1.021 1.233s.458 1.235 1.021 1.235 1.022-.555 1.022-1.235-.46-1.233-1.022-1.233Z" fill="#CBD5E1"/><path d="M69.825 68.055c.636 0 1.152-.61 1.152-1.364 0-.752-.516-1.363-1.152-1.363-.636 0-1.152.61-1.152 1.364 0 .752.516 1.363 1.152 1.363Z" fill="#fff"/><path d="M69.825 68.185c-.706 0-1.282-.67-1.282-1.493 0-.824.576-1.494 1.282-1.494.706 0 1.285.67 1.285 1.494 0 .823-.576 1.493-1.285 1.493Zm0-2.727c-.563 0-1.022.553-1.022 1.234 0 .68.46 1.232 1.022 1.232.563 0 1.024-.552 1.024-1.233 0-.68-.459-1.233-1.024-1.233Z" fill="#CBD5E1"/><path d="M76.133 69.001c.636 0 1.152-.61 1.152-1.363s-.516-1.364-1.152-1.364c-.636 0-1.151.61-1.151 1.364 0 .753.515 1.363 1.151 1.363Z" fill="#fff"/><path d="M76.133 69.134c-.706 0-1.282-.673-1.282-1.496 0-.824.576-1.494 1.282-1.494.707 0 1.282.67 1.282 1.494 0 .823-.576 1.496-1.282 1.496Zm0-2.73c-.563 0-1.021.553-1.021 1.234 0 .68.459 1.235 1.021 1.235.563 0 1.022-.555 1.022-1.235s-.459-1.233-1.022-1.233Z" fill="#CBD5E1"/><path d="M81.233 65.117c.636 0 1.151-.61 1.151-1.363s-.515-1.363-1.151-1.363-1.152.61-1.152 1.363.516 1.363 1.152 1.363Z" fill="#fff"/><path d="M81.233 65.247c-.707 0-1.282-.67-1.282-1.493 0-.824.576-1.496 1.282-1.496.706 0 1.282.672 1.282 1.496s-.576 1.493-1.282 1.493Zm0-2.729c-.563 0-1.022.555-1.022 1.236 0 .68.459 1.233 1.022 1.233s1.021-.553 1.021-1.233-.459-1.233-1.021-1.233v-.003ZM82.517 49.467h-.028a.128.128 0 0 1-.1-.154l2.867-13.083a.128.128 0 0 1 .2-.078.131.131 0 0 1 .053.136l-2.867 13.08a.13.13 0 0 1-.125.099ZM78.466 48.904a.13.13 0 0 1-.118-.083.127.127 0 0 1-.008-.05l.35-13.555a.13.13 0 1 1 .26 0l-.349 13.555a.13.13 0 0 1-.135.133ZM67.508 49.535a.132.132 0 0 1-.13-.115l-1.766-12.966a.131.131 0 1 1 .26-.034l1.767 12.963a.13.13 0 0 1-.11.146l-.02.005Z" fill="#CBD5E1"/><path d="M68.546 39.624c.073-.26-1.022-11.527-1.022-11.527l12.145-1.626 3.351 12.59-14.474.563Z" fill="#fff"/><path d="M68.546 39.744a.123.123 0 0 1-.118-.094.114.114 0 0 1 0-.052c.037-.336-.591-7.038-1.021-11.49a.118.118 0 0 1 .102-.128l12.145-1.629a.117.117 0 0 1 .13.089l3.35 12.585a.113.113 0 0 1-.017.099.118.118 0 0 1-.092.05l-14.474.57h-.005Zm-.892-11.545c.261 2.591.972 10.1 1.009 11.3l14.204-.558-3.289-12.34L67.654 28.2Z" fill="#121A26"/><path d="m85.391 49.733 2.124-17.381-9.57-2.568-8.396 17.425 15.842 2.524Z" fill="#fff"/><path d="M85.391 49.852h-.018L69.53 47.33a.126.126 0 0 1-.085-.062.12.12 0 0 1 0-.107l8.393-17.426a.125.125 0 0 1 .138-.062l9.573 2.567a.118.118 0 0 1 .086.128L85.51 49.748a.13.13 0 0 1-.047.081.122.122 0 0 1-.073.023Zm-15.665-2.736 15.564 2.481 2.084-17.157-9.36-2.502-8.288 17.177Z" fill="#121A26"/><path d="M77.913 34.173a.115.115 0 0 1-.094-.042.118.118 0 0 1-.023-.1c0-.303-.733-4.09-1.892-5.303-.406-.427-.82-.456-1.139-.122-.974 1.022-.797 4.931-.797 4.97a.12.12 0 0 1-.21.097.12.12 0 0 1-.027-.096c0-.165-.183-4.051.862-5.146a.888.888 0 0 1 .654-.3c.477 0 .938.404 1.371 1.2.876 1.597 1.506 4.616 1.397 4.777a.115.115 0 0 1-.102.066Z" fill="#121A26"/><path d="M75.07 49.428a.13.13 0 0 1-.13-.123l-.88-14.138a.131.131 0 0 1 .072-.126.13.13 0 0 1 .144.02.133.133 0 0 1 .044.09l.88 14.138a.133.133 0 0 1-.122.139h-.008Z" fill="#CBD5E1"/><path d="M67.482 50.611C67.4 50.403 69.1 34.056 69.1 34.056l9.696 1.682 1.353 15.248-12.667-.375Z" fill="#fff"/><path d="m80.144 51.106-12.662-.375a.123.123 0 0 1-.106-.075c-.086-.212 1.097-11.689 1.61-16.613a.113.113 0 0 1 .044-.083.11.11 0 0 1 .094-.02l9.688 1.68a.122.122 0 0 1 .1.107l1.354 15.25a.118.118 0 0 1-.07.12.116.116 0 0 1-.05.01h-.002Zm-12.552-.61 12.413.368-1.334-15.025-9.474-1.645c-.446 4.374-1.548 15.127-1.605 16.302Z" fill="#121A26"/><path d="m69.1 34.056 1.488-1.684 10.809.793-2.606 2.573-9.69-1.682Z" fill="#fff"/><path d="M78.796 35.858h-.02l-9.691-1.682a.123.123 0 0 1-.091-.078.12.12 0 0 1 .023-.12l1.488-1.684a.13.13 0 0 1 .1-.039l10.805.782a.125.125 0 0 1 .104.078.122.122 0 0 1-.028.128l-2.606 2.573a.125.125 0 0 1-.084.041Zm-9.46-1.883 9.419 1.635 2.376-2.346-10.485-.782-1.31 1.493Z" fill="#121A26"/><path d="m81.397 33.165 1.668 16.403-2.921 1.418-1.353-15.248 2.606-2.573Z" fill="#fff"/><path d="M80.144 51.106a.12.12 0 0 1-.118-.11l-1.355-15.248a.118.118 0 0 1 .037-.094l2.606-2.575a.12.12 0 0 1 .2.073l1.67 16.403a.123.123 0 0 1-.067.12l-2.921 1.42a.119.119 0 0 1-.052.011Zm-1.23-15.322 1.334 15.02 2.691-1.303-1.636-16.073-2.39 2.357ZM75.972 36.895h-.013a.118.118 0 0 1-.1-.085.117.117 0 0 1-.004-.046c.231-2.147.46-7.778-1.243-8.02a.963.963 0 0 0-.745.224c-1.608 1.236-2.275 6.73-2.283 6.777a.12.12 0 0 1-.085.111.12.12 0 0 1-.152-.14c.028-.229.688-5.648 2.374-6.946a1.202 1.202 0 0 1 .925-.26c2.28.322 1.48 7.955 1.443 8.28a.117.117 0 0 1-.117.105ZM70.742 28.671a.12.12 0 0 1-.117-.115c0-.221-.219-5.435 2.085-5.89a2.646 2.646 0 0 1 2.108.432c1.792 1.262 2.298 4.483 2.319 4.622a.12.12 0 0 1-.235.036c0-.034-.521-3.26-2.22-4.462a2.415 2.415 0 0 0-1.928-.394c-2.085.414-1.884 5.594-1.882 5.646a.123.123 0 0 1-.114.125h-.016ZM84.758 33.165h-.028a.12.12 0 0 1-.086-.143c0-.027.622-2.49.63-3.27 0-.52-.456-1.694-1.222-2.1-.453-.237-.946-.178-1.467.185-1.735 1.204-1.962 3.996-1.965 4.022a.117.117 0 0 1-.034.093.12.12 0 0 1-.18-.012.118.118 0 0 1-.023-.097c0-.12.237-2.932 2.067-4.202.748-.521 1.344-.393 1.712-.198.883.467 1.354 1.773 1.35 2.312 0 .808-.613 3.222-.64 3.324a.115.115 0 0 1-.114.086Z" fill="#121A26"/><path d="M84.605 47.06h-.016L62.58 44.609a.132.132 0 0 1-.114-.146.136.136 0 0 1 .143-.115l21.955 2.448 4.138-3.128a.13.13 0 0 1 .183.026.133.133 0 0 1-.026.183l-4.17 3.148a.128.128 0 0 1-.085.037Z" fill="#CBD5E1"/><path d="M69.124 51.529a.13.13 0 0 1-.128-.115l-1.618-12.46a.134.134 0 0 1 .112-.146.127.127 0 0 1 .13.064.127.127 0 0 1 .016.048l1.618 12.46a.127.127 0 0 1-.112.146l-.018.003ZM74.213 51.873a.13.13 0 0 1-.13-.13V39.623a.13.13 0 0 1 .222-.092.13.13 0 0 1 .038.092v12.118a.13.13 0 0 1-.13.13ZM78.911 52.144l-.096-.089v-.13.13l-.123-.039c.107-.448 1.188-11.47 1.157-11.785a.138.138 0 0 1 .115-.146.13.13 0 0 1 .146.11c.013.094-1.053 11.792-1.199 11.949Z" fill="#CBD5E1"/><path d="M83.541 52.506 63.58 51.151a.135.135 0 0 1-.122-.115l-1.626-12.65a.135.135 0 0 1 .028-.107.129.129 0 0 1 .107-.04l23.848 2.44a.139.139 0 0 1 .093.053.127.127 0 0 1 .021.102l-2.256 11.568a.133.133 0 0 1-.13.104Zm-19.858-1.608 19.744 1.34 2.21-11.313-23.543-2.409 1.59 12.382Z" fill="#CBD5E1"/><path d="M83.541 52.506a.13.13 0 0 1-.12-.08.127.127 0 0 1-.007-.074l2.256-11.568a.146.146 0 0 1 .04-.07l4.429-4.17a.13.13 0 0 1 .216.122l-2.7 13.387a.126.126 0 0 1-.062.086l-3.973 2.346a.123.123 0 0 1-.079.021Zm2.377-11.62-2.194 11.24 3.674-2.172 2.619-12.916-4.1 3.848Z" fill="#CBD5E1"/><path d="M88.781 43.912h-2.837a.13.13 0 1 1 0-.26h2.837a.13.13 0 0 1 .13.13.133.133 0 0 1-.13.13ZM62.597 44.608a.132.132 0 0 1-.153-.158.133.133 0 0 1 .106-.103l5.628-2.148a.132.132 0 0 1 .17.076.131.131 0 0 1-.076.17l-5.63 2.155a.122.122 0 0 1-.045.008ZM64.249 56.111a.13.13 0 0 1-.128-.115c-.018-.13-.029-.198 7.538-3.27a.133.133 0 0 1 .17.07.133.133 0 0 1-.073.172c-2.827 1.149-7.1 2.908-7.41 3.101a.14.14 0 0 1-.079.04l-.018.002ZM70.237 66.85a.59.59 0 0 0 0-.135c-.078-.48-.657-.636-.782-.1a.689.689 0 0 0 .06.522c.266.451.683.112.722-.287ZM74.768 62.169c0-.037 0-.073-.016-.11a.37.37 0 0 0-.013-.052 1.279 1.279 0 0 0-.054-.122 1.018 1.018 0 0 0-.079-.107h-.013a.125.125 0 0 0-.023-.029.589.589 0 0 0-.078-.062l-.021-.013-.08-.034a.26.26 0 0 0-.134 0 .161.161 0 0 0-.083.023.24.24 0 0 0-.107.07c-.013.014-.023.03-.036.045l-.034.044a.953.953 0 0 0-.05.11.592.592 0 0 0-.026.15v.032a.676.676 0 0 0 .013.123.659.659 0 0 0 .055.14l.018.03a.744.744 0 0 0 .073.09c.028.025.058.049.089.07.035.02.073.038.112.05.068.02.14.02.208 0a.297.297 0 0 0 .094-.039l.034-.026.036-.029.029-.036.029-.04a.48.48 0 0 0 .036-.083.664.664 0 0 0 0-.101.142.142 0 0 0 0-.047l.021-.047ZM76.629 67.622a.537.537 0 0 0-.014-.104.341.341 0 0 0-.041-.11v-.015l-.052-.068a.413.413 0 0 0-.172-.102.334.334 0 0 0-.326.086.68.68 0 0 0-.07.1.678.678 0 0 0-.047.109v.018c0 .034 0 .07-.013.104a.185.185 0 0 0 0 .037v.06a.503.503 0 0 0 0 .062.433.433 0 0 0 .026.076c0 .023.02.047.034.07a.663.663 0 0 0 .075.094c.04.04.09.07.146.086.044.013.09.013.133 0a.22.22 0 0 0 .125-.039.313.313 0 0 0 .12-.12.146.146 0 0 0 .013-.02l.034-.087a.67.67 0 0 0 .013-.12.572.572 0 0 0 .016-.117ZM81.663 63.74a.422.422 0 0 0-.052-.203.11.11 0 0 0 0-.018.54.54 0 0 0-.058-.073l-.036-.029-.037-.028-.08-.034a.26.26 0 0 0-.133 0 .228.228 0 0 0-.123.039l-.068.052c-.04.04-.07.09-.085.146a.72.72 0 0 0-.04.227v.066a.243.243 0 0 0 .026.122.232.232 0 0 0 0 .039.34.34 0 0 0 .232.232.336.336 0 0 0 .326-.086c.02-.026.044-.052.063-.078a.557.557 0 0 0 .046-.11.175.175 0 0 0 0-.034v-.065a.357.357 0 0 0 .019-.164Z" fill="#CBD5E1"/><path d="M23.066 22.3a.12.12 0 0 1-.102-.182c.633-1.027 3.828-6.152 4.607-6.256a.216.216 0 0 1 .182.057c.521.506-1.143 4.17-1.667 5.281a.12.12 0 0 1-.217-.101c1.043-2.203 1.991-4.744 1.718-5.008-.389 0-2.554 3.128-4.43 6.15a.115.115 0 0 1-.091.06Z" fill="#121A26"/><path d="m22.375 21.706-8.718 11.13 1.339 1.061.552 2.33 10.694-3.886 2.087-11.06-5.954.425Z" fill="#fff"/><path d="M15.546 36.355a.12.12 0 0 1-.06-.015.118.118 0 0 1-.065-.084l-.54-2.286-1.303-1.042a.13.13 0 0 1-.023-.183l8.721-11.13a.126.126 0 0 1 .091-.05l5.954-.425a.127.127 0 0 1 .107.045.13.13 0 0 1 .032.11l-2.085 11.062a.136.136 0 0 1-.083.096l-10.684 3.884a.148.148 0 0 1-.062.018Zm-1.707-3.55 1.238.983c.023.019.04.044.047.073l.52 2.184 10.489-3.808 2.043-10.82-5.733.406-8.604 10.982Z" fill="#CBD5E1"/><path d="M23.438 23.593 22 21.693l4.834-1.947 1.089 1.214-4.485 2.633Z" fill="#CBD5E1"/><path d="M23.438 23.724a.133.133 0 0 1-.104-.053l-1.438-1.897a.138.138 0 0 1-.021-.115.13.13 0 0 1 .076-.086l4.833-1.947a.127.127 0 0 1 .146.034l1.092 1.214a.13.13 0 0 1-.037.201l-4.479 2.63a.125.125 0 0 1-.068.019Zm-1.232-1.974 1.266 1.671 4.253-2.492-.928-1.027-4.591 1.848Z" fill="#CBD5E1"/><path d="M25.875 23.19h-.019a.118.118 0 0 1-.097-.09.117.117 0 0 1-.002-.046c.261-1.666 1.155-7.106 2.01-7.148a.303.303 0 0 1 .236.102c.65.657.373 5.307.34 5.836a.12.12 0 0 1-.128.128.12.12 0 0 1-.11-.144c.13-2.03.164-5.213-.26-5.653a.074.074 0 0 0-.058-.032c-.448.024-1.274 3.624-1.785 6.947a.117.117 0 0 1-.127.1Z" fill="#121A26"/><path d="m24.533 23.236-2.96 12.317 2.822 1.918 4.971-3.764.654-11.79-5.487 1.32Z" fill="#fff"/><path d="M24.395 37.601a.128.128 0 0 1-.073-.023L21.5 35.672a.128.128 0 0 1-.052-.138l2.96-12.33a.132.132 0 0 1 .096-.096l5.472-1.303a.131.131 0 0 1 .115.026.133.133 0 0 1 .046.107l-.654 11.787a.124.124 0 0 1-.052.097l-4.958 3.753a.117.117 0 0 1-.078.026Zm-2.663-2.106 2.67 1.825 4.85-3.67.638-11.553-5.248 1.246-2.91 12.152Z" fill="#CBD5E1"/><path d="m24.236 23.111 1.944.98 3.84-2.174-1.2-1.168-4.584 2.362Z" fill="#CBD5E1"/><path d="M26.18 24.221a.168.168 0 0 1-.06 0l-1.944-.982a.128.128 0 0 1-.07-.115.13.13 0 0 1 .07-.117l4.591-2.375a.128.128 0 0 1 .149.023l1.203 1.17a.13.13 0 0 1-.028.207l-3.846 2.171a.123.123 0 0 1-.065.018Zm-1.658-1.113 1.655.834 3.632-2.05-1.008-.984-4.279 2.2ZM16.223 34.974a.117.117 0 0 1-.07-.021.127.127 0 0 1-.037-.18l6.991-10.523a.128.128 0 0 1 .083-.065.13.13 0 0 1 .142.056.13.13 0 0 1-.008.152l-6.992 10.523a.134.134 0 0 1-.109.058ZM24.872 36.749h-.014a.13.13 0 0 1-.112-.146l1.593-11.334a.132.132 0 1 1 .26.037l-1.6 11.33a.13.13 0 0 1-.127.113Z" fill="#CBD5E1"/><path d="M27.404 24.667a.12.12 0 0 1-.117-.12c0-.02.026-2.085.133-4.137.219-4.24.565-4.27.748-4.287.685 0 1.198 4.869 1.443 7.783a.12.12 0 1 1-.237.02c-.302-3.594-.836-7.407-1.211-7.558-.345.203-.608 4.321-.652 8.187a.12.12 0 0 1-.107.112Z" fill="#121A26"/><path d="M53.26 21.552s2.846 5.873 5.6 7.124a34.34 34.34 0 0 0 6.514 2.255c1.606.373 2.442 2.653 2.442 3.112 0 .46-.876.832-1.438.456-.563-.375-1.754-1.379-1.754-1.379s.188 1.565-.375 1.254c-.563-.31-.813-1.88-.813-1.88s-2.718.262-4.49-.562c-1.772-.824-5.336-2.568-7.09-4.692" fill="#fff"/><path d="M66.891 34.77a1.074 1.074 0 0 1-.6-.172c-.419-.281-1.17-.894-1.542-1.201.024.375 0 .93-.227 1.09a.312.312 0 0 1-.349 0c-.52-.295-.781-1.47-.854-1.857-.522.04-2.843.154-4.43-.58-3.46-1.593-5.86-3.186-7.132-4.73a.123.123 0 0 1 .016-.169.12.12 0 0 1 .166.016c1.251 1.52 3.622 3.089 7.049 4.666 1.722.782 4.401.555 4.43.552a.12.12 0 0 1 .13.1c.068.42.333 1.563.753 1.793.047.026.08.031.102.018.13-.089.156-.667.099-1.152a.117.117 0 0 1 .128-.135.117.117 0 0 1 .064.028s1.191 1.004 1.744 1.371a.956.956 0 0 0 .956 0 .472.472 0 0 0 .297-.367c0-.4-.816-2.64-2.345-2.998a34.842 34.842 0 0 1-6.533-2.26c-2.775-1.254-5.552-6.926-5.672-7.187a.12.12 0 0 1-.006-.09.119.119 0 0 1 .151-.074.12.12 0 0 1 .068.06c.03.06 2.867 5.847 5.543 7.067a34.324 34.324 0 0 0 6.488 2.247c1.688.393 2.533 2.724 2.533 3.23a.705.705 0 0 1-.425.578c-.185.1-.392.154-.602.157Z" fill="#121A26"/><path d="m32.266 48.317-3.108 3.91-6.991-6.029s-3.885 3.678-3.33 3.892c.555.213 2.663 0 2.663 0s8.338 8.862 9.656 8.036c1.319-.826 7.437-8.82 7.437-8.82" fill="#fff"/><path d="M30.943 58.309c-.482 0-1.702-.522-5.196-3.804-2.053-1.931-3.992-3.972-4.294-4.29-.352.034-2.132.19-2.66 0a.197.197 0 0 1-.126-.149c-.11-.552 2.588-3.156 3.416-3.944a.12.12 0 0 1 .16 0l6.9 5.938 3.03-3.803a.12.12 0 0 1 .21.062.117.117 0 0 1-.025.087l-3.106 3.91a.125.125 0 0 1-.084.044.138.138 0 0 1-.088-.029l-6.91-5.971c-1.621 1.543-3.247 3.279-3.268 3.63.461.154 2.017.042 2.585-.015a.12.12 0 0 1 .099.036c3.194 3.39 8.599 8.582 9.508 8.016 1.303-.806 7.343-8.711 7.403-8.79a.12.12 0 0 1 .19.144c-.26.326-6.134 8.02-7.468 8.85a.479.479 0 0 1-.276.078Z" fill="#121A26"/><path d="m51.395 50.882.133 14.723s4.802 1.11 4.247 1.331c-.555.222-8.13 0-8.13 0l-1.759-18.392" fill="#fff"/><path d="M53.352 67.156c-2.23 0-5.212-.084-5.71-.1a.117.117 0 0 1-.114-.104l-1.759-18.395a.122.122 0 0 1 .107-.13.12.12 0 0 1 .13.107l1.749 18.29c2.816.081 6.939.15 7.817.034-.521-.24-2.366-.737-4.086-1.133a.12.12 0 0 1-.091-.115l-.133-14.722a.12.12 0 0 1 .204-.086.12.12 0 0 1 .036.083l.13 14.628c4.266.988 4.286 1.278 4.294 1.371a.164.164 0 0 1-.12.167c-.187.078-1.204.105-2.454.105Z" fill="#121A26"/><path d="M44.203 20.53c-2.676 2.195-3.09 7.273-3.593 11.068l12.528 2.445s1.67-10.687.11-12.49c-1.561-1.805-6.369-3.217-9.045-1.023Z" fill="#2969FF"/><path d="M45.13 18.523c.086-.03.173-.06.261-.093-.896.03-1.738-.485-2.319-1.168-.58-.683-.94-1.52-1.303-2.346a3.167 3.167 0 0 0 2.554.2 3.175 3.175 0 0 1-2.309-2.413c1.634.174 3.127-.853 4.446-1.825 1.318-.972 2.866-1.926 4.61-1.259 1.894.722 2.47 2.959 2.55 4.786.102 2.346-.883 4.53-3.233 5.343-1.577.548-3.33.352-4.904-.2a3.964 3.964 0 0 1-1.426-.782 5.988 5.988 0 0 0 1.074-.243Z" fill="#fff"/><path d="M48.377 20.194a9.037 9.037 0 0 1-2.926-.521 4.114 4.114 0 0 1-1.467-.8.12.12 0 0 1-.034-.123.123.123 0 0 1 .097-.083c.258-.035.513-.088.763-.16a3.343 3.343 0 0 1-1.824-1.157c-.596-.7-.959-1.564-1.302-2.374a.117.117 0 0 1 .028-.133.122.122 0 0 1 .138-.018c.638.343 1.376.45 2.085.3a3.297 3.297 0 0 1-2.03-2.391.119.119 0 0 1 .029-.104.123.123 0 0 1 .101-.037c1.564.164 2.947-.76 4.362-1.806 1.327-.983 2.895-1.97 4.722-1.275 2.136.816 2.564 3.415 2.626 4.893.117 2.661-1.12 4.692-3.312 5.474a6.225 6.225 0 0 1-2.056.315Zm-4.036-1.342c.364.254.765.451 1.188.584 1.225.43 3.06.813 4.826.2 2.085-.722 3.265-2.677 3.153-5.226-.062-1.42-.466-3.91-2.473-4.692-1.714-.654-3.22.297-4.497 1.24-1.35 1-2.796 1.958-4.365 1.867a3.101 3.101 0 0 0 2.186 2.166.12.12 0 0 1 .092.11.117.117 0 0 1-.078.117 3.305 3.305 0 0 1-2.361-.068c.28.728.668 1.41 1.149 2.023.623.73 1.454 1.15 2.223 1.126a.122.122 0 0 1 .122.094.122.122 0 0 1-.075.136l-.261.096c-.271.094-.548.17-.829.227Z" fill="#121A26"/><path d="m50.853 18.12.013 2.377s-.24 1.326-1.686.922a2.987 2.987 0 0 1-1.913-1.704l.16-4.114c.188-.72.268-1.464.236-2.208 1.757-.026 3.127-1.353 3.127-1.353s.605.908.866 1.194c.217.214.406.455.562.717.243.456.235 1.03.222 1.535-.006.6-.065 1.2-.177 1.789-.24 1.12-1.41.844-1.41.844Z" fill="#fff"/><path d="M49.693 21.615a2.016 2.016 0 0 1-.544-.081 3.083 3.083 0 0 1-1.999-1.778.122.122 0 0 1 0-.044s.164-4.087.164-4.116c.008-.07.022-.14.042-.209.164-.65.23-1.321.195-1.991a.12.12 0 0 1 .034-.083.11.11 0 0 1 .084-.037c1.69-.029 3.043-1.303 3.056-1.322a.12.12 0 0 1 .097-.03.113.113 0 0 1 .086.051s.602.902.854 1.179c.217.222.405.47.56.74.261.492.248 1.102.238 1.595a9.716 9.716 0 0 1-.183 1.81 1.155 1.155 0 0 1-.497.781c-.272.157-.588.22-.9.177l.014 2.24a1.449 1.449 0 0 1-.61.933 1.248 1.248 0 0 1-.69.185Zm-2.31-1.919a2.9 2.9 0 0 0 1.823 1.609 1.267 1.267 0 0 0 1.042-.076c.256-.179.435-.448.5-.753l-.015-2.346a.119.119 0 0 1 .045-.093.116.116 0 0 1 .101-.022c.294.06.6.014.865-.128a.928.928 0 0 0 .394-.625 9.728 9.728 0 0 0 .177-1.768c0-.49.023-1.042-.211-1.478a3.417 3.417 0 0 0-.521-.69c-.286-.351-.553-.716-.8-1.095-.352.302-1.527 1.22-2.997 1.29a6.875 6.875 0 0 1-.203 1.934 1.566 1.566 0 0 0-.037.162s-.005.062-.164 4.08Z" fill="#121A26"/><path d="M50.84 19.287a2.284 2.284 0 0 1-1.584-.6 1.668 1.668 0 0 1-.522-1.303 4.603 4.603 0 0 0 2.127.725l-.021 1.178Z" fill="#121A26"/><path d="M50.796 19.402a2.345 2.345 0 0 1-1.624-.636 1.775 1.775 0 0 1-.56-1.387.114.114 0 0 1 .068-.089.11.11 0 0 1 .11 0s1.029.68 2.066.704a.113.113 0 0 1 .104.073.112.112 0 0 1 .008.044v1.166a.117.117 0 0 1-.11.114l-.062.01ZM48.83 17.6c.044.383.219.738.495 1.007.378.351.873.552 1.389.563v-.941a4.616 4.616 0 0 1-1.884-.628ZM50.379 16.271a1.591 1.591 0 0 1-.365-.047.116.116 0 1 1 .057-.224c.144.037.474.078.576-.034.04-.101-.237-.664-.594-1.196a.118.118 0 0 1 .034-.162.114.114 0 0 1 .159.034c.372.555.782 1.262.57 1.48a.59.59 0 0 1-.437.15Z" fill="#121A26"/><path d="M48.218 14.381a2.277 2.277 0 0 0-.443-.805.763.763 0 0 0-.841-.203c-.308.15-.41.54-.41.88.01.389.08.773.21 1.14.055.222.167.426.325.591a.52.52 0 0 0 .628.09" fill="#fff"/><path d="M47.455 16.26a.734.734 0 0 1-.477-.187 1.421 1.421 0 0 1-.357-.644 3.77 3.77 0 0 1-.214-1.175c0-.227.045-.782.475-.988a.88.88 0 0 1 .977.226c.214.247.375.536.471.848a.12.12 0 0 1-.073.14.12.12 0 0 1-.148-.054 2.203 2.203 0 0 0-.417-.764.653.653 0 0 0-.706-.183c-.318.157-.341.631-.341.782.009.375.076.747.2 1.1.05.204.15.39.295.543a.41.41 0 0 0 .48.08.116.116 0 0 1 .13-.003c.013.008.025.02.033.032a.115.115 0 0 1 .02.09.117.117 0 0 1-.05.077.521.521 0 0 1-.298.08Z" fill="#121A26"/><path d="M47.213 22.175c.187-1.12-.133-2.171-1.509-2.27-2.064-.146-4.17 1.564-5.993 2.372-.641.279-3.387 1.897-4.107 1.47-.383-.23-.64-.941-.844-1.303-.45-.834-.87-1.687-1.287-2.54-.86-1.767-1.543-3.477-2.84-4.978-.26-.308-.547-.607-.845-.886a6.386 6.386 0 0 0-2.845-1.64.24.24 0 0 0-.195.013c-.123.089 0 .28.13.368l1.485 1.058a5.521 5.521 0 0 0-1.347-.766c-.224-.089-.915-.462-1.115-.214-.284.347.456.547.63.662.412.26.806.563 1.225.808a7.48 7.48 0 0 0-1.71-.738c-.283-.083-.706-.065-.742.23-.023.193.156.341.315.453l1.27.871c-.352-.242-.902.347-.99.639a1.45 1.45 0 0 0 .34 1.35.685.685 0 0 0 .28.19.328.328 0 0 0 .32-.057c.341-.318-.125-.97.453-1.183a.52.52 0 0 1 .618.3.717.717 0 0 1-.112.708c-.125.162-.316.31-.292.522a.385.385 0 0 0 .208.276.654.654 0 0 0 .886-.31c.063-.157.125-.386.292-.363.06.016.114.051.154.1.227.221 1.34 4.28 1.634 5.62.404 1.847 1.143 5.812 3.543 6.11.075.01.151.015.227.015 2.243 0 4.469-.803 6.488-1.705 1.68-.75 3.633-1.415 5.016-2.666a4.693 4.693 0 0 0 1.259-2.516Z" fill="#fff"/><path d="M34.5 29.156h-.045c-.08 0-.161 0-.24-.016-2.373-.297-3.163-3.965-3.588-5.935l-.06-.26c-.312-1.432-1.393-5.316-1.602-5.56a.2.2 0 0 0-.083-.063c-.055 0-.107.13-.141.224l-.026.062a.78.78 0 0 1-1.042.37.502.502 0 0 1-.26-.367.66.66 0 0 1 .228-.493l.086-.104a.597.597 0 0 0 .1-.59.402.402 0 0 0-.472-.226c-.235.086-.243.248-.237.521a.764.764 0 0 1-.178.631.447.447 0 0 1-.437.086.799.799 0 0 1-.342-.221 1.564 1.564 0 0 1-.37-1.468c.133-.324.384-.587.701-.735l-.933-.641c-.185-.128-.396-.308-.364-.566a.384.384 0 0 1 .161-.29.934.934 0 0 1 .72-.049l.26.079h-.023c-.238-.107-.522-.238-.587-.464a.344.344 0 0 1 .084-.298c.192-.232.602-.101.938.042a.47.47 0 0 1-.167-.315.232.232 0 0 1 .102-.193.35.35 0 0 1 .289-.031 6.423 6.423 0 0 1 2.897 1.655c.28.26.558.555.855.896 1.081 1.254 1.733 2.63 2.42 4.09.144.303.287.608.436.915.398.816.826 1.684 1.287 2.537.047.085.096.19.149.302.172.357.385.805.65.964.522.305 2.448-.69 3.388-1.17.26-.14.488-.26.62-.308.522-.232 1.08-.54 1.66-.865 1.428-.798 2.903-1.621 4.396-1.514a1.723 1.723 0 0 1 1.303.607c.334.422.443 1.043.318 1.801a4.794 4.794 0 0 1-1.303 2.562c-1.128 1.025-2.606 1.65-4.044 2.258-.347.144-.681.287-1 .43-1.918.85-4.175 1.71-6.504 1.71ZM28.87 17.07h.045c.084.02.16.065.218.13.261.261 1.42 4.56 1.665 5.68l.06.261c.412 1.913 1.18 5.474 3.388 5.735.087.007.174.007.26 0 2.288 0 4.516-.855 6.397-1.694.326-.146.662-.29 1.004-.433 1.414-.6 2.879-1.22 3.978-2.213a4.612 4.612 0 0 0 1.223-2.427c.08-.48.096-1.15-.261-1.613a1.503 1.503 0 0 0-1.144-.465c-1.42-.101-2.866.707-4.263 1.486-.586.329-1.141.639-1.683.873-.125.055-.336.165-.605.303-1.527.771-3.038 1.51-3.611 1.157-.328-.198-.558-.68-.743-1.069-.052-.109-.099-.208-.146-.291a69.1 69.1 0 0 1-1.29-2.544c-.148-.308-.294-.616-.437-.918-.68-1.444-1.324-2.807-2.387-4.035-.262-.307-.54-.6-.834-.879a6.204 6.204 0 0 0-2.788-1.598c-.076-.018-.094 0-.099 0 .02.073.066.136.13.175l1.144.813c.117.079.232.16.344.261a.117.117 0 0 1-.053.21.12.12 0 0 1-.088-.02l-.338-.24a5.62 5.62 0 0 0-.985-.52l-.141-.06c-.198-.09-.727-.326-.839-.188-.044.054-.04.083-.037.09.027.113.303.235.451.3.065.028.129.06.19.095.162.104.321.213.48.323.235.161.48.33.73.477a.12.12 0 0 1 .041.161.123.123 0 0 1-.164.045 7.399 7.399 0 0 0-1.67-.72.711.711 0 0 0-.521.021.135.135 0 0 0-.068.11c-.018.13.14.26.26.338l1.26.858a.12.12 0 0 1 .03.167.118.118 0 0 1-.121.05.12.12 0 0 1-.043-.019.24.24 0 0 0-.232-.016 1.16 1.16 0 0 0-.578.59 1.337 1.337 0 0 0 .318 1.232.52.52 0 0 0 .226.16.211.211 0 0 0 .204-.032c.11-.102.104-.26.101-.45 0-.261 0-.606.394-.757a.638.638 0 0 1 .781.355.834.834 0 0 1-.125.831l-.096.115c-.094.107-.183.209-.172.31a.26.26 0 0 0 .151.185.521.521 0 0 0 .714-.26l.024-.06c.052-.141.138-.368.346-.368l.005-.008ZM40.526 31.502s-2.775 3.086-11.548 17.021c0 0 15.374 5.341 23.866 5.15l.213-19.635-12.53-2.536Z" fill="#121A26"/><path d="M52.398 53.799c-8.495 0-23.308-5.109-23.451-5.161a.133.133 0 0 1-.07-.07.112.112 0 0 1 0-.1c8.679-13.786 11.532-17.005 11.56-17.037a.112.112 0 0 1 .108-.036l12.53 2.534a.12.12 0 0 1 .092.114l-.214 19.636a.115.115 0 0 1-.112.115l-.443.005Zm-23.245-5.333c1.54.521 15.634 5.231 23.579 5.098l.208-19.427-12.37-2.505c-.382.448-3.379 4.077-11.417 16.834ZM47.593 66.235c0 .037 4.055 0 4.055 0s.469-.91.813-.94c.344-.032 4.242 1.105 4.218 1.74-.023.637-9.412.733-9.412.733l.326-1.533Z" fill="#121A26"/><path d="M47.267 67.883a.113.113 0 0 1-.11-.088.118.118 0 0 1-.002-.05l.329-1.533a.115.115 0 0 1 .12-.091h.028c.206.02 2.434 0 3.948 0 .133-.245.521-.91.873-.941.352-.032 3.458.857 4.169 1.54a.44.44 0 0 1 .167.32c0 .188-.021.504-4.826.715-2.327.102-4.677.128-4.69.128h-.006Zm.423-1.533-.28 1.303c4.274-.047 8.9-.284 9.162-.638a.803.803 0 0 0-.101-.125c-.657-.626-3.726-1.507-3.997-1.478-.196.018-.54.521-.722.878a.115.115 0 0 1-.102.063c-2.65.02-3.6.03-3.963-.003h.003ZM23.016 46.62l-2.814 2.943.521.941s-3.192 1.254-3.63.754c-.437-.5 4.69-5.607 4.69-5.607l1.233.97Z" fill="#121A26"/><path d="M17.534 51.477a.69.69 0 0 1-.521-.152c-.118-.135-.342-.39 2.186-3.143 1.214-1.327 2.501-2.607 2.514-2.62a.112.112 0 0 1 .151 0l1.22.97a.114.114 0 0 1 .013.17l-2.754 2.872.49.865a.118.118 0 0 1 0 .094.114.114 0 0 1-.066.07c-.43.17-2.274.873-3.233.873Zm4.27-5.68c-2.378 2.374-4.74 5.017-4.611 5.382.26.29 2.084-.26 3.387-.742l-.466-.824a.115.115 0 0 1 .018-.136l2.715-2.857-1.042-.823ZM50.259 17.165a.956.956 0 0 1-.19-.018c-.433-.086-.782-.461-1.043-1.118a.115.115 0 0 1 .002-.089.117.117 0 0 1 .11-.069.118.118 0 0 1 .08.036c.01.011.02.024.025.038.229.579.52.907.872.975.522.104 1.043-.412 1.043-.42a.117.117 0 0 1 .188.083.118.118 0 0 1-.021.08c-.284.29-.662.468-1.066.502ZM49.787 14.173a.118.118 0 0 1-.11-.078c-.04-.126-.098-.193-.166-.209-.149-.029-.37.175-.435.248a.115.115 0 0 1-.162 0 .117.117 0 0 1 0-.165c.034-.039.347-.38.652-.318a.475.475 0 0 1 .347.402.114.114 0 0 1-.079.101.083.083 0 0 1-.047.019ZM51.619 14.454a.111.111 0 0 1-.107-.075c-.031-.081-.143-.305-.305-.357-.161-.053-.26.2-.26.203a.118.118 0 0 1-.152.065.118.118 0 0 1-.062-.151c.063-.156.26-.428.534-.336.209.1.37.277.448.495a.118.118 0 0 1-.07.149.108.108 0 0 1-.026.007Z" fill="#121A26"/><path d="m44.703 30.952-8.7-.9s-3.38 5.881-2.754 7.419c.625 1.538 4.445 3.04 7.137 2.289 2.691-.751 4.317-8.808 4.317-8.808Z" fill="#fff"/><path d="M38.804 40.08c-2.452 0-5.123-1.238-5.665-2.565-.64-1.564 2.622-7.277 2.762-7.52a.117.117 0 0 1 .115-.06l8.7.9c.033.003.063.02.084.046a.13.13 0 0 1 .02.094c-.067.331-1.672 8.136-4.403 8.9-.526.14-1.068.21-1.613.205Zm-2.736-9.905c-.37.654-3.27 5.868-2.707 7.247.615 1.511 4.406 2.94 6.991 2.218 2.408-.675 3.984-7.56 4.208-8.59l-8.492-.875Z" fill="#121A26"/><path d="M38.124 34.2c-.129 0-.258-.009-.386-.027-.977-.138-1.607-.907-1.824-2.218a7.3 7.3 0 0 1-.03-1.918.117.117 0 0 1 .132-.102.125.125 0 0 1 .104.136c0 .034-.458 3.568 1.65 3.865 2.175.308 5.693-2.494 5.732-2.52a.12.12 0 0 1 .142-.026.121.121 0 0 1 .062.078.12.12 0 0 1-.055.133c-.138.112-3.263 2.599-5.527 2.599Z" fill="#121A26"/><path d="M38.257 32.349a.333.333 0 1 0 0 .666.333.333 0 0 0 0-.666ZM44.266 31.082a.13.13 0 0 1-.115-.065.136.136 0 0 1 .05-.18c.07-.036 6.944-3.967 8.108-10.145a.133.133 0 0 1 .261.047c-1.188 6.298-8.166 10.286-8.236 10.328a.13.13 0 0 1-.068.015Z" fill="#121A26"/><path d="m80.298 15.195.745 2.012 2.012.745-2.013.745-.744 2.012-.745-2.012-2.013-.745 2.013-.745.745-2.012ZM25.289 65.93l.335.906.905.335-.905.335-.335.906-.336-.906-.905-.335.905-.335.336-.906ZM5.298 35.6l.745 2.012 2.012.745-2.012.744-.745 2.013-.745-2.013-2.013-.744 2.013-.745.745-2.013ZM71.06 10.232l.41 1.107 1.107.41-1.107.409-.41 1.107-.409-1.107-1.107-.41 1.107-.41.41-1.106ZM83.193 6.371l.41 1.107 1.107.41-1.107.41-.41 1.106-.41-1.107-1.106-.41 1.106-.409.41-1.107ZM9.847 26.776l.41 1.107 1.107.41-1.107.409-.41 1.107-.41-1.107-1.106-.41 1.107-.41.41-1.106Z" fill="#E2E8F0"/></svg>